<svg version="1.2" xmlns="http://www.w3.org/2000/svg" viewBox="0 0 458 458" width="458" height="458">
	<title>Folder 1</title>
	<style>
		.s0 { fill: #000000 } 
	</style>
	<g id="Folder 1">
		<path id="back" fill-rule="evenodd" class="s0" d="m341.1 23.1c4.2 2.1 6.8 7.3 7.1 14.4 0.1 3.6 0.5 4.5 1.9 4.5 2.7 0 3.5 5.9 1.5 9.8-0.9 1.8-2.5 3.9-3.5 4.9-2.1 2-3.5 8.4-2.6 11.4 0.4 1.3 4.6 3.9 11.8 7.5 6.2 3.1 12.1 6.4 13.2 7.4 1.1 1 3.4 2.5 5 3.4 10.8 5.9 10.9 6 13.4 13.2 2.8 8.5 3.7 17 2.2 21.6-0.9 2.8-0.8 4.3 0.4 7.8 0.9 2.4 1.8 7.8 2.2 12 0.4 5.1 1.5 9.4 3.5 13.5 1.9 4 2.8 7.6 2.8 10.8 0 2.7 0.7 7.4 1.6 10.5 1.5 4.9 1.5 6.9 0.4 15.7-0.6 5.5-1.3 17.6-1.5 27-0.5 23-1.4 32-3.7 38.5-2.6 7.1-3.5 8-5.4 5.6-0.8-1.1-1.4-1.6-1.4-1-0.1 0.5-0.7-0.2-1.5-1.6-2-3.4-1.8-6.7 0.4-9.8 2.8-4.1 3.4-8.3 1.6-12.5-1.6-3.8-3.5-4.2-3.5-0.7 0 3.2-2.2 7-4.1 7-4.2 0-3.8-15.6 0.5-21.8 4-5.8 3.6-11.4-2-26.9-3.6-9.9-4.7-14.5-4.9-20.3-0.8-15.6-2.2-22.9-6.2-31.1l-3.9-7.9-3.2 9.7c-4.3 13-4.5 23.2-0.6 31.8 2.2 4.7 2.5 6.5 2 10.8-0.5 3.4-0.1 7.5 0.8 11.7 0.9 3.6 1.6 8.7 1.6 11.4 0 2.7 1.5 10.8 3.3 18 3.1 12.7 3.2 13.7 3.2 34.1 0 12.1-0.6 25.5-1.4 31.5-2 14.9-1.7 20.3 1.3 29.8 3.4 10.7 3.4 18 0 37.6-1.5 8.6-2.4 17.2-2.2 20.1 0.5 5.1 4.2 14.5 5.7 14.5 0.5 0 2.8 1.6 5.1 3.5 2.3 1.9 5 3.5 6.1 3.5 2.6 0 2.5 3.3-0.3 7-1.3 1.8-4 3.6-7.1 4.6-2.8 0.9-6.6 2.7-8.5 4-5 3.4-13.3 3.4-16.7-0.1-3.1-3-3.2-7.4-0.7-16.7 1.1-3.7 1.5-7.2 1.1-7.9-0.4-0.7-0.5-5.1-0.2-9.8 0.6-9.5-1.3-18.7-6.3-29.8-5.9-13.3-6.5-17.9-3.3-28.3l2.1-6.9-2.5-4.3c-3.7-6.4-5.4-13.7-6.7-29.3-0.9-11.1-6.3-43.1-7.4-44.3-0.9-0.8-6.8 34.6-7.7 45.8-1.2 15.8-2.1 19.6-6 26.9l-2.9 5.4 2.1 7.1c3 9.9 2.7 13-2.5 25.9-7.1 17.8-7.7 20.5-7.2 35.2 0.2 7.2 0.9 14.6 1.5 16.5 0.6 1.9 1.1 5.6 1.1 8.2 0 3.8-0.5 5-2.6 6.7-3.8 3-11.8 2.9-16.4-0.2-1.9-1.3-5.9-3.2-8.9-4.3-3.4-1.2-5.7-2.7-6.4-4.1-0.6-1.3-1.4-2.3-1.9-2.3-2.1 0-0.6-4.1 2-5.2 1.5-0.7 4.2-2.5 6-4 1.8-1.5 3.7-2.8 4.1-2.8 0.5 0 2-1.9 3.2-4.3 2-3.6 2.4-5.6 2.3-13.7 0-5.5-0.8-13.1-1.9-18-1.2-5.6-1.9-12.4-1.9-20 0-9.8 0.4-12.5 2.5-18 2.9-7.8 3-12.3 0.5-35-2.6-23.2-1.8-41.1 2.3-58.3 1.7-7.1 3.1-14.9 3.1-17.5 0-2.6 0.7-7.9 1.6-11.7 0.9-3.9 1.5-8.1 1.3-9.5-0.7-6.2 0-11.1 2-14.3 1.7-2.9 2.1-5 2.1-12.8 0-7.8-0.5-10.8-3.1-18.5l-3.2-9.1-2.8 5.4c-3.8 7.1-5.9 14.6-5.9 20.4 0 2.6-0.5 5.1-1.1 5.5-0.7 0.4-0.9 2.4-0.5 5.5 0.8 5.7-0.1 9.3-5.5 24.1-4.9 13.4-5.1 19-1.1 25 2.3 3.5 2.8 5.4 3.1 12.5 0.3 7.2 0.1 8.4-1.5 9-2.3 0.9-5.4-3-5.4-6.8 0-4.1-1.5-3.6-3.4 1.1-1.9 4.7-1.4 7.8 2.1 12.8 1.2 1.9 2.3 3.8 2.3 4.1-0.1 1.1-3.9 7.6-4 6.7 0-0.6-0.6-0.1-1.4 1-1.9 2.5-2.9 1.4-5.6-6.9-1.9-6-2.3-10.2-3.1-32.5-0.5-14.1-1.3-29-1.8-32.9-0.7-4.9-0.7-8.8 0-12 0.5-2.7 1.3-8.2 1.8-12.4 0.5-4.9 1.7-9.2 3.4-12.5 1.7-3.3 2.7-7.2 3.1-12 0.3-3.8 1.2-9.2 2-11.8 1.2-3.8 1.2-5.8 0.3-10.1-0.9-4.4-0.8-6.8 0.6-13 2.3-10.5 3.4-12.4 10.2-16.9 3.3-2.1 7.8-5.1 10-6.6 2.2-1.5 8.6-5 14.2-7.8 6.6-3.4 10.4-5.9 10.8-7.2 0.9-2.8-0.4-9.8-1.9-10.7-0.7-0.5-2.2-2.5-3.5-4.5-2.6-4.4-2.2-9.7 1-10.5 1.5-0.4 1.9-1.5 1.9-4.9 0-8.5 3.6-13.5 11.2-15.9 4.9-1.6 9.7-1 14.9 1.6zm-16 0.1c-5.8 2.2-9 8.6-9.1 18.2 0 3.1-0.3 3.6-1.3 2.7-3.2-2.6-3.7 3.7-0.7 8.7 1.1 1.8 2.5 3 3 2.7 0.6-0.4 1 0.7 1 2.4 0 3.2 1.5 5 2.3 2.9 0.3-0.7 0.3 0.2 0 1.9-0.8 4.8 0.3 4 3.7-2.6 3.4-6.8 4.8-8.1 6.5-5.8 1 1.4 1.2 1.4 2.2-0.1 0.9-1.5 1.2-1.5 2.8-0.2 0.9 0.8 2.9 3.8 4.2 6.7 2.8 5.9 4.2 7.5 3.6 3.9-0.3-1.3 0-2.7 0.6-3 0.6-0.4 1.1-2.4 1.1-4.4q0-3.6 0.9-2.4c1.2 2 5.1-3.8 5.1-7.6 0-3.6-1.5-5-2.8-2.6-0.6 1.2-1.1-0.4-1.4-5.3-0.6-7.8-2.2-11.8-5.8-14.5-3.2-2.4-11.5-3.2-15.9-1.6zm3.6 31.8c-0.6 0-2.4 2.6-4 5.7-4 8-7.9 11.3-20.2 17.2-5.9 2.9-11.4 6-12.4 7.1-1.6 1.7-1.5 1.9 0.6 3.1 1.6 0.8 5.1 1 11.2 0.6 11.2-0.7 18.1-3.8 22.3-9.9 2.6-3.7 2.9-5 3.2-14 0.3-6.5 0-9.8-0.7-9.8zm3.9 8.4c0 4.6 0.4 9.6 0.9 10.9 1.6 4.1 7.4 9.9 11.9 11.9 5.4 2.4 20.8 3.6 24.1 1.9 2.2-1.2 2.2-1.3 0.4-3.3-1-1.1-6.7-4.4-12.8-7.3-12-5.8-15.2-8.5-19.3-16.5-4.2-8.1-5.2-7.6-5.2 2.4zm-0.6 9.8c-0.6-2.1-0.8-2.3-0.9-0.6-0.1 2.6-5.6 11.3-7.7 12.1-1.2 0.5-0.9 1.3 1.9 4.2 4.1 4.2 5.7 7.1 5.8 10.3 0 1.5 0.5 0.8 1.4-2.1 0.8-2.4 3-6.1 5-8.1 3.6-3.7 3.6-3.9 1.7-4.9-1.1-0.6-3-2.7-4.2-4.6-1.2-1.9-2.6-4.8-3-6.3zm-43 14.1c-0.7-0.4-3.6 1.5-3 1.9 0.3 0.2 2.2 1.2 4.3 2.2 2.1 1.1 4.8 3.6 6 5.7l2.2 3.7 3-2.4c2.2-1.8 2.5-2.4 1.3-2.4-2.8 0-6.7-2.2-7.3-4-0.3-0.9-1.8-2.3-3.3-3.1-1.5-0.7-2.9-1.5-3.2-1.6zm25.6 1.3c-2.5 0.8-7.8 1.6-11.7 1.7-10.5 0.3-9.2 2.8 2.1 4.2 6.1 0.8 9.6 3.1 9.6 6.2-0.1 1-0.7 4.5-1.5 7.8-2.3 9.6-1.9 15.2 1.4 21 4.4 7.5 12.4 18.8 13.7 19.2 0.8 0.3 1.3-6.2 1.6-22.4 0.6-26.1-0.1-30.5-5.3-35.9-3.7-3.8-3.6-3.8-9.9-1.8zm23.8 1.1c-3.8 4.1-5.6 8.2-5.9 13.8-0.7 11.4 0.1 45.5 1.1 45.5 1.2 0 8.4-9.7 13.2-17.9 4.3-7.5 4.9-13.3 2.3-23.1-0.8-3-1.5-6.3-1.5-7.3 0-3.1 3.5-5.4 9.6-6.2 11.4-1.4 12.6-3.9 2-4.2-4.1-0.1-9.3-0.9-11.7-1.8-5.8-2-6.1-1.9-9.1 1.2zm35.7-2.6c-1.8 0.3-5.9 3.5-6.7 5.3-0.5 1.1-2.5 2.5-4.5 3.1l-3.6 1 2.8 2.3c2.7 2.2 2.8 2.2 3.4 0.3 0.9-2.9 8.2-9.1 10.8-9.1 2.1-0.1 2.2-0.1 0.3-1.5-1.1-0.8-2.2-1.5-2.5-1.4zm-98.6 13.4c-2 5.8-3.1 16.2-2.1 19.9l0.7 2.7 3.7-3c2-1.7 6.3-4 9.4-5.2 7.6-2.9 9.3-4.9 9.3-11.1 0-4.7-0.3-5.3-4.4-8.9-7.3-6.5-13.3-4.5-16.6 5.6zm103.1-9.5c-5 0-12.6 7.5-12.6 12.5 0 4.9 3.3 8.6 10.4 11.6 3.8 1.6 8.2 4 9.7 5.5l2.7 2.6 0.8-2.4c2.2-7-1.6-24.1-6.3-27.7-1.4-1.2-3.5-2.1-4.7-2.1zm-74.5 6.9c-4.3 2.6-6.2 5.1-6.7 8.9-0.4 2.7 0 3.6 2.6 5.6 5.6 4.1 7.7 5 9.1 3.4 1.4-1.5 3.5-10.5 3.5-14.9 0-2.2-0.6-3.2-2.6-3.9-3.1-1.2-2.4-1.3-5.9 0.9zm50.6-1.8c-3.2 0.6-4.2 1.4-4.7 3.5-0.7 2.9 1.3 13.6 3.1 16 1.3 1.9 3.3 1.2 9-3.1 2.7-2 3-2.8 2.7-6.4-0.4-3.5-1-4.4-5-7.1-2.5-1.6-4.8-2.9-5.1-2.9zm-60 16.3c-0.8 1-0.9 2.6-0.2 5.6 1.2 5.2 1.8 5.9 6.2 6.6 3.2 0.5 3.6 0.3 5.1-2.9l1.7-3.5-2.8-1.1c-1.5-0.7-3.9-2.3-5.4-3.6-3.1-2.9-3.1-2.9-4.6-1.1zm68.4 1.2c-1.6 1.3-4.2 2.9-5.7 3.5l-2.7 1.1 1.7 3.5c1.5 3.2 1.9 3.4 5.1 2.9 4.4-0.7 5.7-2.1 6.6-7.2 0.9-5.6-1-7.1-5-3.8zm-71.1 0.4c-1.3 0.1-13.6 7.2-15.5 9-2.7 2.6-4.4 7.8-5.5 17.6-0.7 6.5-0.5 8.5 1.2 13.6 2.2 6.5 3 6.3 4.3-0.7 1-5.7 5.9-16.1 8-16.9 3.7-1.4 4 1.1 1.1 10.2-1.6 4.8-3.5 10-4.3 11.6-1.2 2.2-1.2 2.7-0.1 2.1 3.2-1.9 5.7-5 6.4-7.9 0.3-1.7 2.5-6.7 4.7-11.1l4-8-1.9-9.7c-1-5.4-2.1-9.8-2.4-9.8zm78.6 0.8c-0.2 0.4-1.1 4.8-2.1 9.8l-1.7 9.1 4 7.9c2.2 4.3 4.4 9.2 4.8 10.9 0.7 3.2 2.9 6.1 5.5 7.5 1.2 0.7 0.8-1.1-1.6-7.8-4-10.7-4.6-13.4-3.6-15 3-4.8 10.8 10.5 12.6 24.7 0.5 4.4 1.3 6.6 5.8 16.1 2.1 4.7 4.2 10.2 4.4 12.2 0.9 6.2 2.3 3.2 2.3-4.7 0-8.5-1-11.8-4.9-16-1.5-1.7-3.8-4.5-5-6.3l-2.2-3.2 2-5.5c2.4-6.2 2.2-12.2-0.6-23.3-1.2-5-2.3-6.9-5.3-9.5-3.9-3.3-13.7-8-14.4-6.9zm-38.9 17.7l-0.2-18-0.3 18.2c-0.1 10.8-0.6 18.4-1.2 18.8-0.5 0.3-1 2.3-1 4.3 0 5.5-5.5 26-7.6 28.3-1.1 1.2-2.6 1.8-3.9 1.5-1.1-0.2-3.6 0.4-5.5 1.4l-3.5 1.9 3.2 0.1c6 0 17.7 15.2 18.9 24.5l0.7 5 1.4-5.8c2.2-10 13.1-23.7 18.8-23.7l3-0.1-3.5-1.9c-1.9-1-4.4-1.6-5.5-1.4-1.3 0.3-2.8-0.2-3.8-1.4-2-2.1-7.7-23.6-7.7-28.6 0-1.8-0.4-3.6-1-4.2-0.5-0.5-1.1-9-1.3-18.9zm-21.6-12.8c-0.6-1.7-0.8-1.6-1.9 0.8-1.6 3.4-1.5 3.5 0.8 3.5 1.1 0 2-0.6 1.9-1.3 0-0.6-0.4-2-0.8-3zm44.6 0.7l-1.4-2.7-0.5 2.7c-0.5 2.6 1.4 4.8 2.8 3.3 0.3-0.3-0.1-1.8-0.9-3.3zm-43.6 5.1h-15.2l1.8 8c2.2 9.9 4.4 15.6 11.4 29.4 3 6 5.9 13 6.6 15.5 2.3 9.1 4.8 7 8.3-6.9 1.4-5.5 2.8-12.3 3.1-15 0.7-5 0.6-5.2-4.9-12.5-3.1-4.1-6.9-10-8.4-13zm48 0h-7.6l-2 4c-2.8 5.4-9.6 15.4-12.7 18.7l-2.6 2.8 1.7 9.2c3.4 19.4 8.5 29.3 10.2 20.1 0.3-2.1 3.9-10.8 8-19.3 7.1-15.2 9.7-21.9 11-29 0.4-1.9 0.8-4.2 1.1-5 0.3-1.2-0.9-1.5-7.1-1.5zm-81 27.5c-2.4 8.5-2.5 9-1.1 9 1.8 0 9-17.6 9-22.2 0-5.7-5 2.6-7.9 13.2zm98.9-13.6c0 1.8 4.9 16.3 6.6 19.8 2 3.9 3.7 3.6 2.9-0.5-1.1-5.6-3.7-13.1-5.8-17-2.1-3.8-3.7-4.8-3.7-2.3zm-106.3 14.7l-1.3-3.1-2.2 4.7c-1.1 2.7-2.3 7-2.6 9.8l-0.5 5 3.9-4.4c2.2-2.4 4-5.4 4-6.6 0-1.3-0.6-3.7-1.3-5.4zm124-1.5c-1.2-1.7-1.4-1.5-2.5 2.2-1.8 5.8-1.6 6.5 2.8 11.3l3.9 4.4 0.1-3.1c0-1.7-0.7-5.3-1.5-8-0.8-2.7-2-5.8-2.8-6.8zm-88.2 7.4l-2.4-4.5-0.1 9.6v9.7l3.9 3.5c2.2 1.9 4.9 4 6 4.7 2 1 2.1 0.9 1.5-1.7-0.4-1.5-2-6-3.6-9.8-1.6-3.9-4-9-5.3-11.5zm52.5 5.6l-0.5-10-4.2 9c-2.4 4.9-4.9 11.1-5.7 13.9-1.7 5.6-1.9 5.3 6 8.9 2.8 1.3 5.5 2.9 5.8 3.5 2.8 4.4 3.6-7.2 0.9-12.2-1.2-2.2-2-6.3-2.3-13.1zm-73.4-6.7c-0.5 0.7-2.4 1.9-4.2 2.7-3.9 1.6-4.3 3.8-1.8 8.5l1.5 3.1 2.5-3.3c1.3-1.8 2.7-4.7 3-6.5 0.7-4 0.2-6.5-1-4.5zm92.1 0.3c-2-1.7-2-1.6-1.3 2.6 0.3 2.4 1.7 6 3 7.9 2.4 3.5 2.4 3.5 3.6 1.3 0.7-1.3 1.6-3.5 2-5.1 0.7-2.5 0.5-2.9-2.3-3.8-1.7-0.6-4-1.9-5-2.9zm-103.6 2.4c-0.6-0.4-1.1-0.3-1.1 0.2 0 0.6-2.1 3.3-4.6 6.1-5.2 5.8-6.4 9.2-6.3 17.6 0.1 8 1.4 11.5 2.1 5.8 0.3-2.3 2.6-8.6 5.1-14 2.5-5.5 4.9-11.1 5.2-12.5 0.4-1.5 0.2-2.9-0.4-3.2zm2.9 4.6l-0.7-3.7-0.8 2.8c-0.8 2.8 1 11.3 2.6 12.3 1.5 0.9 2.2-4.5 0.8-6.2-0.7-0.8-1.5-3.2-1.9-5.2zm109.4-0.5c-0.3 1-1.3 3.4-2.1 5.4-1.1 2.6-1.2 4.2-0.5 5.5 0.9 1.6 1 1.6 2.1-0.5 0.7-1.2 1.5-4.4 1.8-7.1 0.6-4.9-0.2-6.8-1.3-3.3zm-112.3 6.1c-0.3-0.3-2.2 3-4.2 7.5-3.3 7.3-3.7 9.4-4.2 19.2-0.7 12.1 0 19.8 1.6 19.2 1.3-0.4 4.1-10.8 6.2-22.9 0.8-4.8 2-9.8 2.7-11.2 0.9-2 0.8-3.5-0.2-6.8-0.7-2.4-1.6-4.6-1.9-5zm10.7 3.9c-0.2-3.9-0.5-4.7-1.4-3.6-5.8 7.2-10.6 27.6-8.5 35.9 0.7 2.9 0.9 3.1 1 1 0.1-1.4 2.1-8.4 4.6-15.5 3.6-10 4.5-14 4.3-17.8zm93.2 0c0 3.1 1.6 9.4 4.5 17.7 2.5 7.1 4.5 13.9 4.5 15 0.1 2 0.1 2 1.2 0.2 2.4-4.1-0.9-22.1-5.8-31.8-3.3-6.6-4.4-6.8-4.4-1.1zm14.8 2.5l-3.5-7.3-1.6 4.3c-1.6 4-1.6 4.7 0.2 12.8 1.1 4.7 3.1 13.2 4.4 18.9 1.2 5.8 2.8 10.6 3.4 10.8 1.9 0.7 2.7-10.4 1.6-21.7-0.9-8.6-1.7-11.8-4.5-17.8zm-86.5 0.5l-3.1-2.9-1.6 3c-1.5 2.9-2.2 11.2-1.1 12.4 0.3 0.3 3.5-1 7.1-2.9 6.5-3.5 6.5-3.5 4.2-5.1-1.3-0.8-3.7-2.8-5.5-4.5zm4.4 11.3c-2.8 0.1-7.9 2.3-9.4 4.1-1.5 1.8-3.6 12.7-3.1 16.3l0.3 2.9 3.2-2.7c5.7-4.8 16.4-9.8 19.6-9.2l2.8 0.6-2-2.9c-1.2-1.6-3.7-4.3-5.6-6-2-1.7-4.6-3.1-5.8-3.1zm31.2 8.1l-3.1 4 2.6-0.7c3.2-0.8 13.8 4 20 9.1l4.3 3.5-0.5-5.2c-0.8-8.8-2.5-14-5.2-16-6.4-4.7-11.3-3.2-18.1 5.3zm-31.6 8.6c-6 3.3-6.4 3.8-5.8 6.2 1.7 6.7 1.7 11.4-0.3 17.4-4.7 14.5-4.2 15 9.4 10.3 5.4-2 11.1-4.4 12.6-5.6 1.5-1.1 2.8-1.6 2.8-1 0 0.5-1.8 2.1-4 3.6-3.3 2.2-4 3.3-4.7 7.3-0.4 2.5-0.7 7.4-0.6 10.9 0.1 7.9 2.3 22.3 3.3 21.7 0.4-0.2 1-3.3 1.3-6.8 0.3-3.5 1.7-11.4 3.2-17.5 1.6-7 2.5-13.7 2.4-17.9-0.1-3.8 0.1-7.8 0.5-9.1 1.1-3.2-1.2-15.8-3.5-19.7-3.1-5.3-6.7-5.2-16.6 0.2zm31.6-3.7c-3.5 0-4 0.4-6.1 4.2-2 3.8-2.3 6.1-2.5 19.5-0.3 13.3 0 16.4 2.1 25.5 2.6 11.2 4.7 23.7 5.2 30.8 1.6 27.2 2.9 30.2 3.8 8.5 0.7-17.8-0.4-28.3-1.8-17.6-0.4 2.9-0.9 5.1-1.3 4.8-0.3-0.3 0.1-3.9 0.7-7.9 1.5-8.4 1.8-21.6 0.7-27.1-0.6-2.9-1.7-4.3-4.7-6.2-2.2-1.4-4-3-4-3.5 0-0.6 1.3-0.1 2.8 1 1.5 1.2 7.3 3.7 12.7 5.6 8.6 3 10.1 3.3 11.3 2 1.3-1.3 1.1-2.5-1.2-10.2-2.1-6.6-2.6-9.9-2.2-13.3 1.3-9.9 1.6-9.1-5.2-12.7-4.1-2.2-7.8-3.4-10.3-3.4zm49.2 4.1c-0.5-1.9-0.9-1.1-2 4-0.7 3.5-2.6 8.7-4.2 11.5-2.5 4.5-2.9 6.2-2.9 13 0 6.1 0.3 7.5 1.2 6.6 2.1-2.1 3.9-9.4 2.6-10.9-1.8-2.3 0.8-1.4 3 1 5.1 5.5 5.7 14.4 1.2 19.2-1.4 1.5-2 3-1.6 4.1 0.6 1.5 0.9 1.4 3.2-0.7 5.6-5.2 6.2-7.3 6.8-23.9 0.4-10.5 0.3-14.8-0.4-13.3-0.5 1.3-1.4 2.3-1.9 2.3-1.7 0-4.1-4.3-4.2-7.5-0.1-1.6-0.4-4.1-0.8-5.4zm-119.6 3.6c-1.2 8.3-5 11.9-6.6 6.2-1-3.4-1 9.5 0 21.3 0.7 9.2 0.9 9.9 4.5 14.2 2.1 2.5 4.2 4.6 4.7 4.6 1.5 0 1-3.2-0.7-5.1-0.9-1-2.2-3.5-2.9-5.5-1.1-3.2-1-4.5 0.1-7.8 1.5-4.2 5-8.6 6.8-8.6 0.6 0 0.6 0.4-0.1 1.1-1.2 1.2 0.2 8.4 2.1 10.8 0.8 1.1 1.2 0.7 1.8-2 1-5.2-0.2-11.8-3.3-17.8-1.6-2.9-3.2-7.5-3.5-10.2-0.9-6.6-2.1-7-2.9-1.2zm30.5 1.3c-5.3 0-13.5 40.8-11.4 57.5 0.5 4.4 0.9 5.9 1.1 4 0.9-7.3 3.5-19.7 5.3-25.1 2.2-6.4 4.1-12.6 6.6-21.8 1.3-4.9 1.4-6.6 0.4-10.2-0.7-2.4-1.6-4.4-2-4.4zm61.6 2.1l-2.4-2.3-1.3 2.3c-2.6 4.9-1.4 11.7 5.3 30.9 2.3 6.4 5.8 22.3 5.8 26.2 0 1.6 0.5 2.8 1 2.8 1.3 0 1.3-18.2-0.1-27.3-0.6-4-2.2-11.6-3.5-16.9-1.3-5.3-2.4-10.5-2.4-11.6 0-1-1.1-2.9-2.4-4.1zm-48.3 27.1c-3.3 1.1-3.3 1.1-3.3 7.7 0 7.8-2.3 24.3-4.5 32.1-2.3 8.3-1.9 12 2.5 23.5 2.2 5.8 4 11.3 4 12.3 0.1 1 0.9 0.1 2.1-2.1 1.9-3.6 2-5.4 1.8-23.5-0.3-23.4 0.4-47 1.5-49.5 0.9-1.9 0.5-1.9-4.1-0.5zm29.1-0.9c-1.4-0.5-1.6-0.3-0.9 1.3 1.2 2.6 2 24.4 1.7 48.9-0.2 17.1 0 20.5 1.5 23.8l1.7 3.9 2.2-6.4c1.1-3.5 3.1-9 4.3-12.3 2.6-6.9 2.5-11.1-0.8-25.5-1.2-5.2-2.4-14.5-2.8-20.7-0.6-10.5-0.7-11.2-2.9-11.7-1.2-0.3-3-0.9-4-1.3zm-34.1 3.4c-0.4-0.2-1.9-0.1-3.2 0.4-1.3 0.5-3.5 0.8-4.9 0.7-2.3-0.3-2.7 0.3-4.4 5.7-1.1 3.3-2.8 11.4-4 18-2.1 12.2-2.1 13.6 0 36.5l0.7 7.4 4.7-11.9c7.5-19.5 9.7-28.8 11.3-48.1 0.4-4.5 0.3-8.4-0.2-8.7zm45.4 0.4c-2.2-0.9-2.9-0.8-3.3 0.3-0.9 2.2 2.3 27.2 4.5 35.6 1 4.1 4.1 13 6.8 19.8l4.8 12.3 1.6-14.8c1.4-13.9 1.4-15.5-0.3-25.8-2-12.1-4.6-23-6-25.8-0.6-1.2-1.6-1.5-3.1-1.2-1.3 0.4-3.5 0.1-5-0.4zm-85.5 10.7c-2.3-2.2-4.2-3.7-4.2-3.2 0.1 1.4 7.1 8.6 7.8 8 0.3-0.4-1.3-2.5-3.6-4.8zm122.6 0.3c-3.7 3.8-4.1 6.4-0.5 3.2 1.9-1.8 1.9-1.7 0.6 0.4-0.7 1.2-1 2.5-0.6 2.9 1 1 1.8 0 2.1-2.7 0.1-1.3 0.8-3.5 1.5-4.7 1.9-3.5 1-3.3-3.1 0.9zm-123.5 2.8c-1.5-1.2-1.6-1.2-1 0.4 0.4 1 0.7 2.3 0.7 2.8 0 0.5 0.5 0.9 1 0.9 0.6 0 1-0.6 1-1.4 0-0.7-0.8-2-1.7-2.7zm51.7 18.6l-1.7-8-0.8 5.7c-0.4 3.2-0.4 8.2-0.1 11 0.4 2.9 0.7 9.3 0.8 14.3 0.1 10.9 1.2 8.7 2.6-5.1 0.8-8.3 0.7-11.2-0.8-17.9zm-15.9 17.6c-0.6-3.4-0.7-3.3-3.4 3.8l-2.8 7.1 2 2.6c1.1 1.4 2.5 4.2 3.1 6.2 0.6 2 1.4 4.4 1.6 5.2 0.3 0.9 1.4-0.1 3-3l2.5-4.4-2.7-7.1c-1.5-3.8-3-8.5-3.3-10.4zm53.2-3.1c-0.1 0-0.3 1.2-0.3 2.7-0.1 1.6-1.4 6.1-3 10.2l-2.9 7.3 2.2 4.4c1.2 2.4 2.5 4.4 2.8 4.4 0.4 0 0.9-1.7 1.3-3.8 0.3-2 1.7-5.4 3.1-7.5l2.6-3.8-2.7-6.9c-1.5-3.9-2.9-7-3.1-7zm-65.3 29.8c-2.1 7-2.2 8-1.1 19.5 0.6 6.7 1.4 13.2 1.7 14.4 0.7 2.5 2.9 3.6 5.4 2.8 1.4-0.5 1.8-2.4 2.3-12.3 0.3-6.4 1.3-14 2.2-16.9 1.7-5.6 1-11.5-2-17.3-3.1-5.9-4.1-4.7-8.5 9.8zm72.1-13.1c-1.6-1.6-6.1 8.9-6.1 14.3 0.1 2.5 0.7 7.2 1.5 10.5 0.8 3.3 1.5 10.1 1.5 15.1 0 9.7 0.8 11.2 5.1 9.9 2.2-0.7 2.5-1.9 3.9-13.5 1.6-13.2 1.2-17.7-1.9-26.9-1.6-4.6-3.4-8.8-4-9.4zm-56.9 12.1c-4.1 9-5.4 16.1-5.5 30.6l-0.2 12.1h3.3c3.2 0 3.4-0.3 6.8-8.5 5.8-14.2 5.9-15.3 3-26.1-1.4-5.2-2.6-10.4-2.6-11.6 0-4.4-1.8-3.1-4.8 3.5zm44.2-5.2c-1.2-1.8-1.3-1.7-1.9 1-0.3 1.6-1.5 6.5-2.7 10.9-1.2 4.4-2.2 9.6-2.2 11.5 0 1.9 2 8.4 4.4 14.3 4.3 10.7 4.4 10.8 7.4 10.5l3.1-0.3 0.3-7c0.5-10.5-1.5-24.9-4.5-32.4-1.4-3.6-3.2-7.5-3.9-8.5zm-61.9 26.4l-1.3-11.5-0.1 10.1c-0.1 6.3 0.7 14.1 1.9 21 1.1 6 2.2 14.7 2.3 19.4 0.3 7.1 0 8.9-1.6 11.2-1.4 1.9-1.8 3.6-1.4 6 0.5 2.7 0.4 3-0.5 1.6-1.1-1.5-1.4-1.5-3.7 0-1.4 0.9-4.1 2.9-5.9 4.4-1.8 1.6-3.7 2.6-4.2 2.3-0.5-0.3-1.2 0-1.6 0.6-0.4 0.6 0.1 1.6 1 2.1 0.9 0.5 1.6 1.5 1.6 2.3 0 0.7 2.5 2.3 5.6 3.5 3.1 1.1 7.6 3.2 10.1 4.6 3.6 2.2 5.1 2.5 8.7 2 2.5-0.4 5-1.4 5.6-2.2 1.8-2 1.4-9-1-18.3-2.5-9.9-2.5-17.5 0-27 2.4-9 2.4-9.2 0.5-8.5-0.8 0.4-2.2 0.1-3-0.6-1.2-1-1.5-0.2-1.8 5.2-0.3 5.7-0.3 5.5-0.5-2.2l-0.2-8.5h-3.5c-1.9 0-3.5 0.2-3.5 0.5 0 0.3 0.5 2.3 1 4.5 3.2 13.7 3.1 38.9-0.1 41.9-0.9 0.8-1 0.6-0.4-0.9 0.4-1.1 0.9-5.8 1.2-10.4 0.5-6.8 0.4-8.2-0.7-7.6-1 0.6-1.1 0.4-0.5-1.1 1.7-4.1 1.6-6.6-0.5-19.5-1.2-7.4-2.8-18.6-3.5-24.9zm83.7-7c-0.8-4.3-0.8-4.1-1.4 4.5-0.4 4.9-1.6 14.6-2.8 21.5-2.4 13.2-3.2 35.2-1.7 42.5 0.6 2.8 0.5 3.7-0.2 3-3.2-3.1-3.2-23.8-0.1-41.4 0.6-3 1-5.5 1-5.5 0-0.1-1.6-0.1-3.5-0.1h-3.5l-0.2 8.5c-0.1 6.6-0.3 7.2-0.5 2.9-0.4-5.5-0.5-5.6-3.3-5.5-1.7 0.1-3 0.3-3 0.6 0 0.3 0.9 3.9 2 8 2.5 9.6 2.5 17.7 0 27.5-2.5 9.6-2.6 16.7-0.4 18.6 2.7 2.2 11.4 1.7 15-0.8 1.7-1.2 5.6-3.2 8.7-4.3 3.2-1.2 5.7-2.8 5.7-3.5 0-0.8 0.7-1.8 1.6-2.3 0.9-0.5 1.4-1.5 1-2.1-0.4-0.6-1.1-0.9-1.6-0.6-0.5 0.3-2.4-0.7-4.2-2.3-1.8-1.6-4.4-3.6-5.7-4.5-2.2-1.5-2.5-1.5-3.6 0-1 1.3-1.1 1.1-0.7-1.6 0.3-2.3-0.3-4.2-2.2-6.9-2.6-3.7-3.8-7.2-1.3-3.9 1 1.5 1.1 0.5 0.9-5.3-0.2-4.1 0.5-12.3 1.7-19.3 1.1-6.7 2.3-14.7 2.6-17.7 0.3-3 0.2-7.5-0.3-10zm-69.2 54.3c0 2.6 0.5 4.7 1 4.7 0.6 0 0.8-1.6 0.4-4.3-0.9-5.8-1.4-5.9-1.4-0.4zm52.6-3.3c-0.8 0-1.2 7.1-0.4 8.3 0.4 0.7 0.8-0.9 0.8-3.6 0-2.6-0.2-4.7-0.4-4.7z"/>
	</g>
</svg>