<svg version="1.2" xmlns="http://www.w3.org/2000/svg" viewBox="0 0 458 458" width="458" height="458">
	<title>Folder 1</title>
	<style>
		.s0 { fill: #000000 } 
	</style>
	<g id="Folder 1">
		<path id="barki" fill-rule="evenodd" class="s0" d="m72.5 92c0.4 0.6 3.2 0.9 6.3 0.8 9.5-0.4 10.5 2 4.3 9.8-2.1 2.7-4.4 6.6-5.1 8.8-2.4 7.3-12.4 16.1-15.5 13.6-3.5-2.9-3.5-14.4 0-25.1 2.2-6.5 8-11.1 10-7.9zm98.4 1.8c5.5 5.4 8.1 26.7 3.8 31-1.4 1.3-1.9 1.2-5.2-0.8-5.3-3.3-7.4-5.8-10.2-12-1.4-3-3.8-6.9-5.4-8.7-3.3-3.9-4.6-8-3-9.6 0.6-0.6 3.6-1 7-0.9 3.3 0.1 6.2-0.2 6.6-0.8 1.1-1.8 3.6-1.1 6.4 1.8zm121.2 1.1c4.1 3.6 4.4 4.2 4.4 8.9 0 6.2-1.7 8.2-9.3 11.1-3.1 1.2-7.4 3.5-9.4 5.2l-3.7 3-0.7-2.7c-1-3.7 0.1-14.1 2.1-19.9 3.3-10.1 9.3-12.1 16.6-5.6zm91.2-1.8c4.7 3.6 8.5 20.7 6.3 27.7l-0.8 2.4-2.7-2.6c-1.5-1.5-5.9-3.9-9.7-5.5-7.1-3-10.4-6.7-10.4-11.6 0-5 7.6-12.5 12.6-12.5 1.2 0 3.3 0.9 4.7 2.1z"/>
	</g>
</svg>