<svg version="1.2" xmlns="http://www.w3.org/2000/svg" viewBox="0 0 458 458" width="458" height="458">
	<title>Folder 1</title>
	<style>
		.s0 { fill: #000000 } 
	</style>
	<g id="Folder 1">
		<path id="biceps" fill-rule="evenodd" class="s0" d="m80.3 119c1.7 2.8 1.7 3.6 0.3 11.7-1.6 9.2-6.4 23.6-9.6 28.8-1 1.7-3 4.1-4.4 5.4l-2.4 2.3-1.1-3.8c-2.3-8.2-3.3-17-2.8-23.3 0.8-9.5 2.1-12.5 6.1-13.9 1.9-0.7 5.1-3.2 7.2-5.6 2.2-2.4 4.1-4.5 4.4-4.5 0.3-0.1 1.4 1.2 2.3 2.9zm79.7-2.1c0 1.6 7.5 8.1 10.8 9.3 2.5 1 3.5 2.1 4.4 5.3 1.9 6.1 1.5 21.9-0.6 29.3l-1.9 6.3-2.8-2.7c-5.4-5.1-11.1-19.2-13.4-32.7-1.6-9.1-1.6-9.7 0.1-12.6 1.8-3 3.4-4 3.4-2.2z"/>
	</g>
</svg>