<svg version="1.2" xmlns="http://www.w3.org/2000/svg" viewBox="0 0 458 458" width="458" height="458">
	<title>Folder 1</title>
	<style>
		.s0 { fill: #000000 } 
	</style>
	<g id="Folder 1">
		<path id="brzuch" fill-rule="evenodd" class="s0" d="m115.5 130c1.6 2.6-0.8 7.2-5.3 10.1-5.4 3.4-7.8 3.7-8.7 0.9-1-3.1 1.6-7.2 6-9.7 4.3-2.5 7-2.9 8-1.3zm12.8 0.6c5.4 2.7 6.7 4.4 6.7 8.6 0 4.6-1.5 4.9-7.6 1.3-4.8-2.8-6.4-5.1-6.4-8.9 0-3.1 2.5-3.4 7.3-1zm-31.4 4.8c1.8 1.9 2.2 3.1 1.6 5.3l-0.7 2.8-3.9-4.4c-2.1-2.4-3.9-4-3.9-3.6 0 0.5 0.7 1.7 1.7 2.7 2 2.2 0.6 2.4-2.5 0.2-2.3-1.6-3.1-4.9-0.9-4.1 0.6 0.2 2.1 0.1 3.2-0.4 2.9-1.1 2.9-1.1 5.4 1.5zm49.1-0.5c0 0.4-0.5 1.2-1.2 1.9-0.6 0.6-0.9 1.4-0.6 1.8 0.4 0.3 1.4-0.6 2.3-2 1.9-2.8 3.5-3.4 3.5-1.2 0 1.8-2.1 3.5-4.8 3.9-1.2 0.2-3 1.1-4 2-3.6 3.2-4.6-2.2-1.1-5.9 1.9-2 5.9-2.3 5.9-0.5zm-50.3 8.3c1.5 1.4 2.3 3.3 2.3 5.5 0 4.1-1 4.2-3.3 0.5-4.4-7.5-3.9-10.6 1-6zm49.3-0.6c0 2-4.1 9.4-5.2 9.4-0.4 0-0.8-1.7-0.8-3.9 0-2.9 0.6-4.3 2.3-5.4 2.9-2.1 3.7-2.1 3.7-0.1zm-41.6 2.1c1-0.4 0.6 0.6-1 3-1.5 2.3-2.4 5-2.4 7.5 0 3.2 0.4 4 2.6 4.8 1.6 0.7 3.2 0.7 4.4 0 1-0.5 3.2-1 4.9-1 2.4 0 3.2 0.5 3.7 2.5 1.1 4.3-0.3 7.3-3.6 8-1.7 0.4-2.8 1-2.6 1.3 0.2 0.4-1.2 0.7-3.1 0.7-4.6 0-6-2.4-3.9-6.7 2-3.9 2-4.4 0.1-2.8-0.8 0.7-1.5 2-1.5 2.9 0 1.4-0.2 1.4-1 0.1-0.6-0.8-0.9-6.4-0.8-12.4 0.1-9 0.4-10.5 1.4-9.1 0.7 1 2 1.5 2.8 1.2zm11.6-0.1c1.4 3.5 1.2 8-0.2 9.2-0.7 0.5-3.7 2-6.6 3.2-3.8 1.6-5.6 2-6.4 1.2-1.6-1.6-0.1-7.7 2.7-11 1.3-1.6 2.1-3.3 1.7-3.7-0.4-0.5-0.2-0.5 0.5-0.2 0.6 0.4 2.2 0.3 3.5-0.2 3.4-1.4 3.8-1.3 4.8 1.5zm15.7 1c3.4 2.6 5.9 8.8 4.7 11.8-0.8 2.1-1.9 2-8.4-1.2-5.3-2.6-5.5-2.9-5.8-7-0.6-7.5 2.6-8.7 9.5-3.6zm7.1 6.3c0.1 5.4-0.2 11-0.7 12.2-0.6 1.6-1 1.8-1 0.8-0.1-0.9-0.8-2.2-1.7-3-1.4-1.2-1.3-1.4 0.6-2.1 2-0.7 2.2-1.4 1.7-5.4-0.2-2.5-1.4-5.9-2.6-7.5-1.5-2-1.7-2.7-0.6-2.3 0.8 0.4 1.7-0.1 2.1-1 1.3-3.5 2-1.1 2.2 8.3zm7.8 7.5l0.5 11.6-3.3 3.3-3.3 3.2-0.3-3.4c-0.2-2.3 0.2-3.7 1.2-4.3 1.7-1 5-6.7 4.3-7.4-0.2-0.3-1.4 1.1-2.6 3.1-1.2 2-2.6 3.3-3.2 2.9-1.7-1-0.1-5.4 3.2-8.6 1.6-1.6 2.9-3.7 2.9-4.6 0-1.1-0.8-0.5-2 1.5-2.3 3.8-4 4.3-4 1.2 0-1.9 5.1-11.1 5.8-10.4 0.1 0.1 0.5 5.5 0.8 11.9zm-47.6-1.8c0 1.3-0.4 2.4-0.8 2.4-1.1 0-3.8-3-4.5-5-0.4-1.1-0.6-1.1-0.6 0.3-0.1 1.1 1.2 3.1 2.7 4.5 3 2.9 4.8 7.7 3.3 8.7-0.6 0.3-2.1-1.1-3.5-3.2-1.5-2.1-2.6-3.4-2.6-3 0 1.6 3.1 6.6 4.6 7.5 1 0.6 1.4 1.9 1.2 4.2l-0.3 3.3-3.3-2.8-3.3-2.8 0.5-10.6c0.3-5.8 0.5-11.2 0.5-12 0.1-2.3 6.1 6 6.1 8.5zm33.8 3.9c3.3 2.8 4.5 6.7 2.7 9.1-1.1 1.5-1.6 1.5-7.1-0.3-5.5-1.8-5.9-2.2-6.2-5.2-0.2-1.8-0.1-3.9 0.2-4.7 0.9-2.3 7.1-1.7 10.4 1.1zm-22.7 11.9l6.4 0.1 0.3 15c0.1 8.2 0 16-0.3 17.3-0.5 2.2-0.6 2.3-3.5 0.5-3.6-2.1-6.2-7.4-8.4-17.2-1.7-7.5-1.5-10.3 1.2-13.4 0.9-1 1.1-1.7 0.4-1.7-2.1 0-4 4.4-4.7 10.5-0.7 5.8-2.5 10.8-4.4 11.9-0.5 0.3-2.7-0.8-5-2.4-3.7-2.8-4.1-3.4-4.1-7.5 0-2.7 0.9-6.1 2.3-8.7l2.3-4.4 2.5 2.4 2.4 2.4-2.3-1.2c-1.3-0.6-2.6-0.9-3-0.6-0.3 0.3 0 0.6 0.6 0.6 0.6 0 2.7 1.6 4.7 3.5 3.6 3.7 4.6 3.6 1.9-0.3-0.8-1.2-1-2.2-0.5-2.2 0.6 0 1.1-2.1 1.1-4.8v-4.7l1.9 2.4c1.5 2 2.7 2.4 8.2 2.5zm28.1-0.6c-0.2 1.8 0.2 3.5 1.2 4.5 1.1 1 1.3 1.8 0.5 2.2-0.6 0.4-1.4 1.7-1.9 2.9-0.8 1.9-0.9 1.8-0.9-0.9-0.1-3.3-2.5-7.5-4.3-7.5-0.7 0-0.5 0.7 0.4 1.7 0.8 1 1.8 2.8 2.1 4.1 0.6 2.6-2.6 16.9-4.8 21.1-1.8 3.5-6.5 7.5-7.6 6.4-1-1.1-1.6-31.5-0.6-33 0.5-0.8 3-1.1 6.9-1 4.8 0.1 6.4-0.2 7.2-1.6 1.6-2.5 2.3-2.1 1.8 1.1zm11.3 7.2c2.4 4.7 1.9 9.7-1.2 12.6-4.8 4.5-5.9 4.7-8.1 1.6-3.7-5.1-3.2-9.5 1.4-13.8 4.4-4.2 5.9-4.2 7.9-0.4z"/>
	</g>
</svg>