<svg version="1.2" xmlns="http://www.w3.org/2000/svg" viewBox="0 0 458 458" width="458" height="458">
	<title>Folder 1</title>
	<style>
		.s0 { fill: #000000 } 
	</style>
	<g id="Folder 1">
		<path id="klatka" fill-rule="evenodd" class="s0" d="m111.5 96.4c4 1.7 5.5 4.2 5.5 9.4 0 5.7-1.9 15.2-3.7 17.8-3.9 5.9-16.5 8.3-23 4.3-4-2.5-11.3-12-11.3-14.6 0.1-3.3 4.8-9.8 9.2-12.7 3.4-2.3 13.4-5.5 17.1-5.5 1.5-0.1 4.3 0.5 6.2 1.3zm29.1 0.7c5.4 1.7 7.9 3.1 11.6 6.8 6.4 6.4 6.8 8.8 2.7 15.2-6.8 10.6-15.9 13.7-25.9 8.6-5.7-2.8-7.7-6.8-8.6-17.3-0.8-9.3 0.1-11.9 4.9-13.9 4.4-2 7.4-1.8 15.3 0.6z"/>
	</g>
</svg>