<svg version="1.2" xmlns="http://www.w3.org/2000/svg" viewBox="0 0 458 458" width="458" height="458">
	<title>Folder 1</title>
	<style>
		.s0 { fill: #000000 } 
	</style>
	<g id="Folder 1">
		<path id="plecy" fill-rule="evenodd" class="s0" d="m329.4 64.8c-0.3 9-0.6 10.3-3.2 14-4.2 6.1-11.1 9.2-22.3 9.9-6.1 0.4-9.6 0.2-11.2-0.6-2.1-1.2-2.2-1.4-0.6-3.1 1-1.1 6.5-4.2 12.4-7.1 12.3-5.9 16.2-9.2 20.2-17.2 1.6-3.1 3.4-5.7 4-5.7 0.7 0 1 3.3 0.7 9.8zm8.4-3.8c4.1 8 7.3 10.7 19.3 16.5 6.1 2.9 11.8 6.2 12.8 7.3 1.8 2 1.8 2.1-0.4 3.3-3.3 1.7-18.7 0.5-24.1-1.9-4.5-2-10.3-7.8-11.9-11.9-0.5-1.3-0.9-6.3-0.9-10.9 0-10 1-10.5 5.2-2.4zm-13.3 29.4c5.2 5.4 5.9 9.8 5.3 35.9-0.3 16.2-0.8 22.7-1.6 22.4-1.3-0.4-9.3-11.7-13.7-19.2-3.3-5.8-3.7-11.4-1.4-21 0.8-3.3 1.4-6.8 1.5-7.8 0-3.1-3.5-5.4-9.6-6.2-11.3-1.4-12.6-3.9-2.1-4.2 3.9-0.1 9.2-0.9 11.7-1.7 6.3-2 6.2-2 9.9 1.8zm23-1.9c2.4 0.9 7.6 1.7 11.7 1.8 10.6 0.3 9.4 2.8-2 4.2-6.1 0.8-9.6 3.1-9.6 6.2 0 1 0.7 4.3 1.5 7.3 2.6 9.8 2 15.6-2.3 23.1-4.8 8.2-12 17.9-13.2 17.9-1 0-1.8-34.1-1.1-45.5 0.3-5.6 2.1-9.7 5.9-13.8 3-3.1 3.3-3.2 9.1-1.2zm-33.7 42.5c1.5 3 5.3 8.9 8.4 13 5.5 7.3 5.6 7.5 4.9 12.5-0.3 2.7-1.7 9.5-3.1 15-3.5 13.9-6 16-8.3 6.9-0.7-2.5-3.6-9.5-6.6-15.5-7-13.8-9.2-19.5-11.4-29.4l-1.8-8h15.2zm52.4-4c-0.3 0.8-0.7 3.1-1.1 5-1.3 7.1-3.9 13.8-11 29-4.1 8.5-7.7 17.2-8 19.3-1.7 9.2-6.8-0.7-10.2-20.1l-1.7-9.2 2.6-2.8c3.1-3.3 9.9-13.3 12.7-18.7l2-4h7.6c6.2 0 7.4 0.3 7.1 1.5z"/>
	</g>
</svg>