<svg version="1.2" xmlns="http://www.w3.org/2000/svg" viewBox="0 0 458 458" width="458" height="458">
	<title>Folder 1</title>
	<style>
		.s0 { fill: #000000 } 
	</style>
	<g id="Folder 1">
		<path id="przedramiona" fill-rule="evenodd" class="s0" d="m179.2 141.7c1 9.8 0.9 11.3-2.7 20.3-0.6 1.5-0.5 1.7 0.4 0.9 0.6-0.6 2-3.3 3-6l1.9-4.9 1.7 4c1.3 3.1 1.6 6 1.2 13-0.4 7.7-1 10.3-4.5 18.6-2.3 5.2-4.4 11.4-4.8 13.7-0.4 2.3-1 4.2-1.4 4.2-0.4 0-1.5-3.5-2.5-7.9-2.5-11-1.8-21.9 1.9-28.4 1.5-2.6 2.5-5.1 2.2-5.5-0.2-0.4 0.2-3.4 1-6.7 1.8-7.8 1.8-18.9-0.1-25.1-1.9-6.2-1.8-7.9 0.2-3.4 0.8 1.9 2 7.8 2.5 13.2zm-117.5 26.2c4.4 8 4.4 8 4.4 18 0 7.1-0.6 11.7-1.9 16-1.6 4.7-2.1 5.5-2.4 3.5-0.6-4.3-2.9-11.2-6.8-20.5-4.6-10.8-5.2-19.7-2-27.9l1.9-5 1.2 4c0.6 2.1 3.1 7.5 5.6 11.9zm214.3 8.9c1 3.3 1.1 4.8 0.2 6.8-0.7 1.4-1.9 6.4-2.7 11.2-2.1 12.1-4.9 22.5-6.2 22.9-1.6 0.6-2.3-7.1-1.6-19.2 0.5-9.8 0.9-11.9 4.2-19.2 2-4.5 3.9-7.8 4.2-7.5 0.3 0.4 1.2 2.6 1.9 5zm4.5 16.7c-2.5 7.1-4.5 14.1-4.6 15.5-0.1 2.1-0.3 1.9-1-1-2.1-8.3 2.7-28.7 8.5-35.9 0.9-1.1 1.2-0.3 1.4 3.6 0.2 3.8-0.7 7.8-4.3 17.8zm101.9-16.7c4.9 9.7 8.2 27.7 5.8 31.8-1.1 1.8-1.1 1.8-1.2-0.2 0-1.1-2-7.9-4.5-15-2.9-8.3-4.5-14.6-4.5-17.7 0-5.7 1.1-5.5 4.4 1.1zm14.9 19.2c1.1 11.3 0.3 22.4-1.6 21.7-0.6-0.2-2.2-5-3.4-10.8-1.3-5.7-3.3-14.2-4.4-18.9-1.8-8.1-1.8-8.8-0.2-12.8l1.6-4.3 3.5 7.3c2.8 6 3.6 9.2 4.5 17.8z"/>
	</g>
</svg>