<svg version="1.2" xmlns="http://www.w3.org/2000/svg" viewBox="0 0 458 458" width="458" height="458">
	<title>Folder 1</title>
	<style>
		.s0 { fill: #000000 } 
	</style>
	<g id="Folder 1">
		<path id="triceps" fill-rule="evenodd" class="s0" d="m292 114c-1.3 0.1-13.6 7.2-15.5 9-2.7 2.6-4.4 7.8-5.5 17.6-0.7 6.5-0.5 8.5 1.2 13.6 2.2 6.5 3 6.3 4.3-0.7 1-5.7 5.9-16.1 8-16.9 3.7-1.4 4 1.1 1.1 10.2-1.6 4.8-3.5 10-4.3 11.6-1.2 2.2-1.2 2.7-0.1 2.1 3.2-1.9 5.7-5 6.4-7.9 0.3-1.7 2.5-6.7 4.7-11.1l4-8-1.9-9.7c-1-5.4-2.1-9.8-2.4-9.8zm78.6 0.8c-0.2 0.4-1.1 4.8-2.1 9.8l-1.7 9.1 4 7.9c2.2 4.3 4.4 9.2 4.8 10.9 0.7 3.2 2.9 6.1 5.5 7.5 1.2 0.7 0.8-1.1-1.6-7.8-4-10.7-4.6-13.4-3.6-15 3-4.8 10.8 10.5 12.6 24.7 0.5 4.4 1.3 6.6 5.8 16.1 2.1 4.7 4.2 10.2 4.4 12.2 0.9 6.2 2.3 3.2 2.3-4.7 0-8.5-1-11.8-4.9-16-1.5-1.7-3.8-4.5-5-6.3l-2.2-3.2 2-5.5c2.4-6.2 2.2-12.2-0.6-23.3-1.2-5-2.3-6.9-5.3-9.5-3.9-3.3-13.7-8-14.4-6.9z"/>
	</g>
</svg>